<?xml version="1.0" encoding="UTF-8"?>
<svg width="1200" height="800" viewBox="0 0 1200 800" xmlns="http://www.w3.org/2000/svg">
    <defs>
        <linearGradient id="bgGradient" x1="0%" y1="0%" x2="100%" y2="100%">
            <stop offset="0%" style="stop-color:#37B24D;stop-opacity:0.1"/>
            <stop offset="100%" style="stop-color:#2F9E44;stop-opacity:0.1"/>
        </linearGradient>
        <linearGradient id="arrowGradient" x1="0%" y1="0%" x2="100%" y2="0%">
            <stop offset="0%" style="stop-color:#37B24D"/>
            <stop offset="100%" style="stop-color:#2F9E44"/>
        </linearGradient>
    </defs>
    
    <!-- 背景 -->
    <rect width="100%" height="100%" fill="url(#bgGradient)"/>
    
    <!-- グラフグリッド -->
    <g stroke="#37B24D" stroke-width="1" opacity="0.2">
        <line x1="200" y1="200" x2="200" y2="600"/>
        <line x1="400" y1="200" x2="400" y2="600"/>
        <line x1="600" y1="200" x2="600" y2="600"/>
        <line x1="800" y1="200" x2="800" y2="600"/>
        <line x1="1000" y1="200" x2="1000" y2="600"/>
        
        <line x1="200" y1="200" x2="1000" y2="200"/>
        <line x1="200" y1="300" x2="1000" y2="300"/>
        <line x1="200" y1="400" x2="1000" y2="400"/>
        <line x1="200" y1="500" x2="1000" y2="500"/>
        <line x1="200" y1="600" x2="1000" y2="600"/>
    </g>
    
    <!-- 上昇グラフ -->
    <path d="M200,500 Q400,480 600,400 T1000,200" 
          fill="none" 
          stroke="url(#arrowGradient)" 
          stroke-width="4"
          stroke-linecap="round">
        <animate attributeName="stroke-dasharray" 
                 values="0,2000;2000,0" 
                 dur="2s" 
                 fill="freeze"/>
    </path>
    
    <!-- データポイント -->
    <g>
        <circle cx="200" cy="500" r="8" fill="#37B24D"/>
        <circle cx="400" cy="480" r="8" fill="#37B24D"/>
        <circle cx="600" cy="400" r="8" fill="#37B24D"/>
        <circle cx="800" cy="300" r="8" fill="#37B24D"/>
        <circle cx="1000" cy="200" r="8" fill="#37B24D"/>
    </g>
    
    <!-- ショッピングカートアイコン -->
    <g transform="translate(900,300)">
        <path d="M-30,-10 L10,-10 L0,20 L-40,20 Z" 
              fill="#2F9E44"/>
        <circle cx="-30" cy="30" r="6" fill="#2F9E44"/>
        <circle cx="-10" cy="30" r="6" fill="#2F9E44"/>
        <animate attributeName="transform" 
                 values="translate(900,300);translate(920,280);translate(900,300)" 
                 dur="1s" 
                 repeatCount="indefinite"/>
    </g>
    
    <!-- 上昇矢印 -->
    <g transform="translate(600,350)">
        <path d="M0,40 L0,-40 L-20,-20 M0,-40 L20,-20" 
              stroke="#37B24D" 
              stroke-width="6" 
              fill="none" 
              stroke-linecap="round" 
              stroke-linejoin="round">
            <animate attributeName="transform" 
                     values="translate(0,0);translate(0,-20);translate(0,0)" 
                     dur="1s" 
                     repeatCount="indefinite"/>
        </path>
    </g>
    
    <!-- パーセント記号 -->
    <g transform="translate(700,250)">
        <text font-family="Arial" font-size="40" fill="#2F9E44" font-weight="bold">
            +30%
        </text>
    </g>
</svg> 